# xmcd
#
# Track frame offsets:
#	150
#	21532
#	42985
#	68605
#	84432
#	101452
#	120140
#	140440
#	158397
#	178165
#	201777
#	220325
#	240085
#	261450
#	281955
#	299105
#
# Disc length: 4464 seconds
#
# Revision: 0
# Processed by: cddbd v1.5.2PL0 Copyright (c) Steve Scherf et al.
# Submitted via: EZCDAudioConverter 7.1.5.1
#
DISCID=e9116e10
DTITLE=吴克群 - 吴克群Kenji Magik Great Hits 举世吴双新歌＋精选 CD2
DYEAR=2008
DGENRE=
TTITLE0=为你写诗
TTITLE1=不屑纪念
TTITLE2=残废
TTITLE3=对不起
TTITLE4=牵牵牵手
TTITLE5=明天过後
TTITLE6=越爱越难过
TTITLE7=圣诞分手节
TTITLE8=学不会
TTITLE9=别太温柔
TTITLE10=我不管
TTITLE11=我有罪
TTITLE12=泛泛之辈
TTITLE13=眼睛不闭着
TTITLE14=吴克群
TTITLE15=不屑纪念 残废 吴克群 为你写诗 Remix
EXTD=
EXTT0=
EXTT1=
EXTT2=
EXTT3=
EXTT4=
EXTT5=
EXTT6=
EXTT7=
EXTT8=
EXTT9=
EXTT10=
EXTT11=
EXTT12=
EXTT13=
EXTT14=
EXTT15=
PLAYORDER=
